<svg id="Layer_1" data-name="Layer 1" xmlns="http://www.w3.org/2000/svg" viewBox="0 0 512 512"><title>footprint2-glyph</title><path d="M195.8,410l-83.36,5.9c-.48,13,1.08,27.37,7.17,40.51a62.36,62.36,0,0,0,7.2,12l71-5C203.2,448.94,202.51,431.08,195.8,410Z" fill="#5b5b5f"/><path d="M208.94,462.62l8.36-.58c2.67-18.13,0-37.56-3.67-53.31l-7.28.51Q215.57,439.84,208.94,462.62Z" fill="#5b5b5f"/><path d="M114.86,469.29a79,79,0,0,1-4.69-8.59c-6.68-14.52-8.56-30-8.19-44.07l-8.3.61c2.16,22.33,7.11,39.48,13.6,52.59Z" fill="#5b5b5f"/><path d="M116.79,385.9a155.49,155.49,0,0,0-3.61,19.57l79-5.6c-2.62-6.67-5.74-13.62-9.44-20.85Z" fill="#5b5b5f"/><path d="M204.7,473.31c-12.88,25.3-38.85,31.22-40,31.47l-1.42.28-1.36-.44c-16.61-5.7-29.86-14.29-39.68-25.47l-9.3.65c26,39.32,67.49,31.57,67.49,31.57,19.68-7.81,30-22.26,34.64-38.84Z" fill="#5b5b5f"/><path d="M102.6,406.22a161,161,0,0,1,3.18-19.15l-13.34,1.38c0,6.53.14,12.63.48,18.44Z" fill="#5b5b5f"/><path d="M202.91,399.11l8.13-.58a207.25,207.25,0,0,0-7.31-21.73l-10,1.05A216.81,216.81,0,0,1,202.91,399.11Z" fill="#5b5b5f"/><path d="M192.16,474.18l-56.31,4a84.1,84.1,0,0,0,28,16.1C168.21,493,182.57,487.86,192.16,474.18Z" fill="#5b5b5f"/><path d="M111,274.12l75.68-5.39c1.08-10.07,1.68-20.28,1.93-30.22l-84,5.94A254.94,254.94,0,0,0,111,274.12Z" fill="#5b5b5f"/><path d="M107.29,166.83a175.64,175.64,0,0,0-4.69,29l85.32-6.06c-.68-12-1.51-21.1-2-25.48Z" fill="#5b5b5f"/><path d="M96.57,167.18,70.72,168a179.68,179.68,0,0,0-6.28,30.46l27.7-1.95A187.26,187.26,0,0,1,96.57,167.18Z" fill="#5b5b5f"/><path d="M91.65,207l-28.27,2a273.55,273.55,0,0,0-.6,28.11l30-2.12A226.37,226.37,0,0,1,91.65,207Z" fill="#5b5b5f"/><path d="M103.28,234.18l85.58-6.06c.08-10-.11-19.5-.43-28l-86.35,6.12A215.19,215.19,0,0,0,103.28,234.18Z" fill="#5b5b5f"/><path d="M227.26,235.77l-28.13,2c-.26,9.87-.85,20.09-1.91,30.21l24.09-1.69C223.87,255.41,225.81,245.25,227.26,235.77Z" fill="#5b5b5f"/><path d="M196,278.45c-2.53,18.89-6.85,36.95-13.77,51.55l20.22-2.36a530.48,530.48,0,0,0,16.21-50.78Z" fill="#5b5b5f"/><path d="M198.33,189l32.34-2.3a200.4,200.4,0,0,0-1.88-23.85l-32.45,1.05C196.85,168.69,197.68,177.52,198.33,189Z" fill="#5b5b5f"/><path d="M100.3,274.88a263.28,263.28,0,0,1-6.17-29.66L63.26,247.4c.6,10.39,1.71,20.45,3,29.88Z" fill="#5b5b5f"/><path d="M103.2,285l-35.3,2.5a394.1,394.1,0,0,0,12.91,54.32l43.8-5.13A288.75,288.75,0,0,1,103.2,285Z" fill="#5b5b5f"/><path d="M227,152.57c-2.9-13.65-6.4-20.29-6.4-20.29C189.51,71.46,127.4,97.35,127.4,97.35c-27,13.62-43.43,35.3-53.07,60.2Z" fill="#5b5b5f"/><path d="M135.48,335.47l34.33-4c8-13.77,12.86-32.34,15.61-52.23l-71.39,5c9.58,30.4,21.45,50.65,21.7,51.05Z" fill="#5b5b5f"/><path d="M199.33,227.37l29.35-2.08c1.22-10.3,1.85-19.68,2-28.21l-31.85,2.26C199.19,207.88,199.41,217.37,199.33,227.37Z" fill="#5b5b5f"/><path d="M316.22,318.14l83.42,5.9c.43,13-1.14,27.35-7.2,40.51a65,65,0,0,1-7.22,12l-71-5Q306.11,349.82,316.22,318.14Z" fill="#5b5b5f"/><path d="M303.08,370.75l-8.39-.58c-2.65-18.1,0-37.57,3.67-53.33l7.31.51C299.5,337.77,298.7,355.61,303.08,370.75Z" fill="#5b5b5f"/><path d="M397.17,377.44a80.68,80.68,0,0,0,4.66-8.6c6.74-14.53,8.59-30,8.25-44.06l8.25.58c-2.13,22.35-7.05,39.51-13.57,52.62Z" fill="#5b5b5f"/><path d="M395.23,294a156,156,0,0,1,3.58,19.57l-79-5.6c2.59-6.67,5.74-13.61,9.41-20.88Z" fill="#5b5b5f"/><path d="M307.32,381.43c12.88,25.31,38.85,31.24,40,31.48l1.42.3,1.34-.47c16.64-5.7,29.86-14.26,39.7-25.46l9.33.65c-26,39.31-67.52,31.57-67.52,31.57-19.68-7.82-30-22.24-34.64-38.82Z" fill="#5b5b5f"/><path d="M409.42,314.35a150.17,150.17,0,0,0-3.21-19.15l13.34,1.38c.08,6.53-.14,12.6-.46,18.47Z" fill="#5b5b5f"/><path d="M309.11,307.23l-8.13-.55a199.42,199.42,0,0,1,7.31-21.73l10,1.05A217,217,0,0,0,309.11,307.23Z" fill="#5b5b5f"/><path d="M319.86,382.34l56.31,4a84.93,84.93,0,0,1-28,16.13C343.81,401.17,329.45,396,319.86,382.34Z" fill="#5b5b5f"/><path d="M401,182.26l-75.68-5.37c-1.08-10.08-1.68-20.29-2-30.23l84,5.94A265.28,265.28,0,0,1,401,182.26Z" fill="#5b5b5f"/><path d="M404.73,75a176.11,176.11,0,0,1,4.69,29L324.1,97.86c.68-12,1.51-21.09,2-25.45Z" fill="#5b5b5f"/><path d="M415.45,75.32l25.85.85a182.13,182.13,0,0,1,6.29,30.48l-27.67-2A191.12,191.12,0,0,0,415.45,75.32Z" fill="#5b5b5f"/><path d="M420.37,115.07l28.27,2a273.07,273.07,0,0,1,.57,28.1l-30-2.13A220,220,0,0,0,420.37,115.07Z" fill="#5b5b5f"/><path d="M408.71,142.33l-85.55-6.09c-.08-10,.09-19.47.46-28l86.29,6.11A206.13,206.13,0,0,1,408.71,142.33Z" fill="#5b5b5f"/><path d="M284.76,143.91l28.1,2c.28,9.91.91,20.08,1.93,30.26l-24.09-1.72C288.15,163.54,286.21,153.39,284.76,143.91Z" fill="#5b5b5f"/><path d="M316,186.61c2.56,18.86,6.85,36.92,13.77,51.55l-20.19-2.39A516.86,516.86,0,0,1,293.33,185Z" fill="#5b5b5f"/><path d="M313.69,97.13l-32.37-2.29A204.67,204.67,0,0,1,283.23,71l32.45,1C315.17,76.85,314.34,85.67,313.69,97.13Z" fill="#5b5b5f"/><path d="M411.75,183a284.17,284.17,0,0,0,6.17-29.65l30.83,2.18c-.62,10.38-1.71,20.45-3.07,29.91Z" fill="#5b5b5f"/><path d="M408.83,193.18l35.3,2.5A394.19,394.19,0,0,1,431.21,250l-43.83-5.12A286.34,286.34,0,0,0,408.83,193.18Z" fill="#5b5b5f"/><path d="M285,60.71c2.9-13.67,6.43-20.31,6.43-20.31,31-60.81,93.14-34.94,93.14-34.94,27,13.65,43.46,35.32,53.07,60.24Z" fill="#5b5b5f"/><path d="M376.52,243.62l-34.3-4c-8-13.77-12.8-32.34-15.61-52.26L398,192.41c-9.58,30.4-21.44,50.65-21.67,51.05Z" fill="#5b5b5f"/><path d="M312.69,135.51l-29.35-2.11c-1.22-10.27-1.85-19.67-2-28.18l31.85,2.28C312.81,116,312.61,125.5,312.69,135.51Z" fill="#5b5b5f"/></svg>