<svg id="Layer_1" data-name="Layer 1" xmlns="http://www.w3.org/2000/svg" viewBox="0 0 512 512"><title>fish-flat</title><rect y="9.14" width="512" height="493.72" rx="54.99" ry="54.99" transform="translate(512) rotate(90)" fill="#e6d6a6"/><rect x="20.23" y="11.1" width="471.53" height="489.81" rx="43.89" ry="43.89" fill="#57595b"/><path d="M419.42,276.4,430,258.63l.47-.8,1.59-2.66a151.27,151.27,0,0,0-30.35-28.94v0a166.31,166.31,0,0,0-94.89-31c-1,0-1.94,0-2.9,0a167.93,167.93,0,0,0-87.25,24c-2,1-4.91,2.74-8.28,4.82,27.47-21.15,62.89-33.92,101.63-33.92,2.68,0,5.36.09,8,.2l2.37.13c1.92.13,3.84.27,5.74.45.83.07,1.63.16,2.44.24,2.05.2,4.06.47,6.07.76l1.74.25c2.66.4,5.27.85,7.88,1.39a170.1,170.1,0,0,1,18.89,5,104.8,104.8,0,0,0-8.39-6.54c-31.31-21.86-70.84-40-88.23-40.56-4.67-.13-6.94,2.48-7.1,7.26-17.53-.43-33.39,1.43-42.59,5.56-7.12,3.22-8.17,10.63-4.2,20.39-19.92,4.11-37.85,10.77-46.72,18-5.4,4.42-5.22,10.85-.54,18.2v0a45.45,45.45,0,0,0,3.86,5.09s0,0,0,0c.74.85,1.52,1.7,2.35,2.57a1.84,1.84,0,0,1,.22.2c.8.83,1.63,1.63,2.5,2.46a5,5,0,0,1,.51.45c.83.76,1.65,1.5,2.52,2.23l1,.83c.78.65,1.54,1.27,2.37,1.92l1.79,1.34c.36.27.72.56,1.1.83-13.15,7.17-26,12.33-30.8,7.53-13.71-13.71-24.56-18-26-18.53-15.14-8.11-34.17-10.34-51.41-6.61-5.81,15.34-.71,32.54,15.32,44.64a45.11,45.11,0,0,0,3.8,2.59c-1.32.85-2.59,1.7-3.8,2.61-16,12.1-21.13,29.3-15.32,44.66,17.4,3.73,36.56,1.45,51.79-6.84,2.43-.94,12.8-5.52,25.66-18.38,6.54-6.52,27.76,5.31,44.64,15.59,27.86,23.22,64.84,37.44,105.48,37.65l-.41,0c-2.9,4.76-4.69,9-4.82,12.17-.4,9.2,17.17,4.69,47.92-12.71,2.45-2.07,4.73-4.06,6.89-6a122.41,122.41,0,0,0,29.75-12.54l0,0a152.61,152.61,0,0,0,56.63-50.43Zm-42.13-18.23a7.52,7.52,0,1,1,7.52-7.52A7.52,7.52,0,0,1,377.29,258.17Z" fill="#eedaa6"/></svg>