<svg id="Layer_1" data-name="Layer 1" xmlns="http://www.w3.org/2000/svg" viewBox="0 0 512 512"><title>shovel-glyph</title><path d="M311,1.79c7,13.55,6.75,24.83-.74,38.23C299.09,55,281.83,69.79,276,85.17l-4.94,258.69c-.23,11.76,10.48,26.91,24.48,28l14,.27c12.81.77,11.14,6.63,10.93,17.08-2,54.19-18.61,104.44-66.89,122.81-47.27-20.21-62-71-62.36-125.28.21-10.45-.9-16.35,11.65-16.65l14.23.27c14-.53,24-15.26,24.22-27L246.3,84.6c-3.94-14.31-20.79-31-31-46.37-7.05-13.7-6.83-24.94.72-38.23l95,1.79ZM233,26.27h0c-3.78.15-7.44,2.61-4.94,5.88l33.76,38.71L292,33.94c2.6-3.49.46-6.53-4.85-6.47Z" fill="#434040" fill-rule="evenodd"/></svg>